<?xml version="1.0" encoding="UTF-8"?>
<svg version="1.1" xmlns="http://www.w3.org/2000/svg" width="1024" height="1024">
<path d="M0 0 C337.92 0 675.84 0 1024 0 C1024 337.92 1024 675.84 1024 1024 C686.08 1024 348.16 1024 0 1024 C0 686.08 0 348.16 0 0 Z " fill="#FEFEFE" transform="translate(0,0)"/>
<path d="M0 0 C0.70600342 -0.00290039 1.41200684 -0.00580078 2.1394043 -0.00878906 C3.26195366 -0.03616905 3.26195366 -0.03616905 4.40718079 -0.06410217 C6.88491581 -0.11744985 9.36161177 -0.13982083 11.83984375 -0.1574707 C13.56517219 -0.17794614 15.29049871 -0.19858343 17.01582336 -0.21937561 C20.63650702 -0.256893 24.25682773 -0.27626962 27.87768555 -0.28613281 C32.50496451 -0.30245711 37.12814467 -0.38807524 41.75419903 -0.49082088 C45.32067332 -0.55803382 48.88617244 -0.57547147 52.45322609 -0.57953072 C54.15775995 -0.58975479 55.86228965 -0.61813871 57.56619835 -0.66541862 C70.86059922 -1.00651536 70.86059922 -1.00651536 75.52174377 2.97286987 C77.58379907 5.77177547 79.18939945 8.52672611 80.765625 11.61987305 C81.87360087 13.31946185 82.99716947 15.00912065 84.14453125 16.68237305 C85.20892422 18.32614188 86.27010697 19.97199374 87.328125 21.61987305 C87.88822266 22.48636475 88.44832031 23.35285645 89.02539062 24.24560547 C92.49362925 29.6176493 95.93748633 35.00460209 99.32421875 40.4284668 C100.72218078 42.5538237 102.24470327 44.50609535 103.828125 46.49487305 C104.4675 47.52612305 105.106875 48.55737305 105.765625 49.61987305 C104.60188946 54.52480282 101.17429907 58.28000526 98.140625 62.18237305 C94.55884906 66.86921582 91.05579533 71.5531508 87.828125 76.49487305 C87.21372559 77.37449707 86.59932617 78.25412109 85.96630859 79.16040039 C84.2641678 81.68706059 83.01328651 84.24171132 81.77319336 87.02148438 C78.37015404 93.80696019 74.64845948 99.21173693 67.28787231 101.88110352 C57.66385243 104.29683348 47.62629154 104.4458112 37.75648499 104.43341064 C35.25799778 104.43236987 32.76129723 104.46460121 30.26306152 104.49804688 C0.09969082 104.69017128 0.09969082 104.69017128 -10.98217773 93.94645691 C-19.62897343 83.96555666 -25.266567 72.16100691 -30.1612854 59.99409485 C-31.57749182 56.86072355 -33.37602376 54.08371684 -35.33255005 51.2631073 C-36.234375 49.61987305 -36.234375 49.61987305 -35.8046875 47.0456543 C-35.28648437 46.24514648 -34.76828125 45.44463867 -34.234375 44.61987305 C-33.33332031 43.06333008 -33.33332031 43.06333008 -32.4140625 41.4753418 C-31.6511344 40.24937072 -30.88249099 39.02694512 -30.109375 37.80737305 C-29.687771 37.13738281 -29.26616699 36.46739258 -28.83178711 35.77709961 C-22.16689569 25.2677537 -15.27972114 14.87788036 -8.234375 4.61987305 C-7.85741486 3.92327072 -7.48045471 3.2266684 -7.09207153 2.50895691 C-4.80914452 0.18745794 -3.18485343 0.10501581 0 0 Z " fill="#1B6C6C" transform="translate(592.234375,682.380126953125)"/>
<path d="M0 0 C4.17872608 0.09699486 8.33910066 0.0395937 12.51719379 -0.05850697 C36.66545143 -0.54110004 36.66545143 -0.54110004 43.51327515 3.80239868 C47.33287188 7.63156788 49.35127947 12.03125304 51.17474365 17.06530762 C52.39809006 20.20560728 54.22960776 22.80605251 56.15722656 25.55615234 C56.77146484 26.49394531 57.38570313 27.43173828 58.01855469 28.39794922 C59.2413902 30.26326912 60.46538226 32.12783125 61.69042969 33.99169922 C63.47869119 36.72434485 65.24669019 39.46924497 67.01269531 42.21630859 C67.61259277 43.12010254 68.21249023 44.02389648 68.83056641 44.95507812 C69.38953613 45.82632324 69.94850586 46.69756836 70.52441406 47.59521484 C71.02803467 48.36551025 71.53165527 49.13580566 72.05053711 49.92944336 C73.31350726 52.93128081 73.08529012 54.1469407 72.01269531 57.21630859 C70.67726624 59.51059899 69.31974909 61.66399765 67.82128906 63.84521484 C67.3977565 64.47556137 66.97422394 65.1059079 66.53785706 65.75535583 C65.18283623 67.76838015 63.8168294 69.77365524 62.45019531 71.77880859 C61.55816955 73.09926598 60.66688652 74.42022543 59.77636719 75.74169922 C58.02760999 78.33464791 56.27540855 80.92520849 54.52001953 83.51367188 C52.18541799 86.95835522 49.86210151 90.41025502 47.54785156 93.86865234 C46.62758179 95.24331665 46.62758179 95.24331665 45.6887207 96.64575195 C43.9626414 99.15024221 43.9626414 99.15024221 42.83239746 101.82661438 C41.01269531 104.21630859 41.01269531 104.21630859 37.98582458 104.91851807 C36.7435762 104.95265808 35.50132782 104.9867981 34.22143555 105.02197266 C33.53480331 105.04679718 32.84817108 105.0716217 32.14073181 105.09719849 C29.86732923 105.17025494 27.59567283 105.20430489 25.32128906 105.23193359 C23.73527508 105.26071162 22.14926129 105.28950002 20.56324768 105.31829834 C17.23340788 105.37084355 13.90417064 105.40005217 10.57397461 105.41748047 C6.32626639 105.44481515 2.08665355 105.56466126 -2.15852451 105.70734024 C-5.43865652 105.80101276 -8.7168876 105.82652593 -11.99824333 105.83415985 C-13.56180737 105.84919731 -15.12535293 105.88903146 -16.68759346 105.95508575 C-28.53591156 106.41999591 -28.53591156 106.41999591 -32.60834503 102.75906944 C-35.62068919 99.16931527 -37.88071155 95.22633744 -40.01415348 91.06885242 C-41.42217654 88.38846276 -43.07847961 85.88595256 -44.74511719 83.36083984 C-46.46851132 80.63811044 -48.18604937 77.91174381 -49.90356445 75.18530273 C-53.70489462 69.17177851 -57.62266549 63.29738675 -61.82714844 57.55615234 C-62.98730469 55.21630859 -62.98730469 55.21630859 -62.92089844 52.79833984 C-61.72831815 49.50003201 -60.05756839 46.88766546 -58.11230469 43.96630859 C-57.28923898 42.71770891 -56.46632915 41.46900646 -55.64355469 40.22021484 C-55.20914062 39.56682129 -54.77472656 38.91342773 -54.32714844 38.24023438 C-52.05903004 34.81408614 -49.83923712 31.35680495 -47.61230469 27.90380859 C-46.31702926 25.90225834 -45.02281404 23.92228844 -43.640625 21.97900391 C-42.20808074 19.58522499 -41.37115228 17.56405217 -40.45117188 14.96142578 C-33.25992688 -2.60401165 -16.32354764 -0.38360315 0 0 Z " fill="#0F373D" transform="translate(395.9873046875,345.78369140625)"/>
<path d="M0 0 C3.33061051 0.16676385 6.65614923 0.19346609 9.99038982 0.21658611 C13.22038135 0.2465705 16.44688586 0.33177645 19.67524147 0.43671608 C21.20705935 0.48580361 22.739223 0.52517828 24.27155113 0.55426598 C36.02895076 0.85705801 36.02895076 0.85705801 40.19004822 4.57800293 C41.99602926 7.11989863 43.42086055 9.64204307 44.79559326 12.43682861 C45.50062988 13.50594482 46.2056665 14.57506104 46.93206787 15.67657471 C47.8061731 17.05450195 47.8061731 17.05450195 48.69793701 18.46026611 C49.36115967 19.50182861 50.02438232 20.54339111 50.70770264 21.61651611 C51.710271 23.1981958 51.710271 23.1981958 52.73309326 24.81182861 C54.07436304 26.92455618 55.41680931 29.03653732 56.76043701 31.14776611 C57.41511963 32.1838501 58.06980225 33.21993408 58.74432373 34.28741455 C60.15442046 36.45240477 61.61521104 38.58494878 63.11639404 40.68780518 C63.85744385 41.73162354 64.59849365 42.77544189 65.36199951 43.85089111 C66.04334961 44.78111084 66.72469971 45.71133057 67.42669678 46.66973877 C69.13665796 50.12625742 68.85804771 51.78130756 67.79559326 55.43682861 C66.47051005 57.72324671 65.13636867 59.79754038 63.60809326 61.93682861 C62.70069364 63.2515461 61.79590866 64.56807065 60.89324951 65.88604736 C60.39969971 66.60453857 59.9061499 67.32302979 59.39764404 68.06329346 C56.35747522 72.5674875 53.45748493 77.16159776 50.54559326 81.74932861 C49.96785156 82.65553955 49.39010986 83.56175049 48.79486084 84.49542236 C45.47150043 89.52528389 45.47150043 89.52528389 42.80805969 94.90412903 C41.41988952 97.94849017 40.16110801 100.05533445 37.79559326 102.43682861 C32.64092651 104.32103387 27.47105005 104.63546082 22.04168701 104.92510986 C21.27029955 104.97681713 20.49891209 105.0285244 19.70414925 105.08179855 C13.88174842 105.46559686 8.06628458 105.63743895 2.23309326 105.74932861 C1.38704529 105.77179783 0.54099731 105.79426704 -0.33068848 105.81741714 C-31.85829233 106.59520789 -31.85829233 106.59520789 -42.49688721 98.2210083 C-52.80424605 88.2032699 -59.30991827 74.73159029 -64.36090088 61.43003845 C-65.23851043 59.18355916 -65.23851043 59.18355916 -67.20440674 56.43682861 C-66.8714525 52.7312614 -65.67431187 50.18198447 -63.67706299 47.08526611 C-63.16346222 46.28612289 -62.64986145 45.48697968 -62.12069702 44.66362 C-60.90510545 42.79360611 -59.67324189 40.93404799 -58.42372131 39.08653259 C-54.76542663 33.6310433 -51.59781376 28.33773203 -48.76934814 22.40338135 C-37.2502852 -0.20144662 -24.08087157 -1.45650673 0 0 Z " fill="#CB871D" transform="translate(732.2044067382813,292.56317138671875)"/>
<path d="M0 0 C1.64616315 -0.01827425 3.29229586 -0.0395046 4.93838501 -0.0635376 C8.38076039 -0.09917474 11.81942088 -0.08969886 15.26171875 -0.04980469 C18.78022987 -0.01297955 22.28814887 -0.0407031 25.80566406 -0.13183594 C53.92101487 -0.85833008 53.92101487 -0.85833008 60.68273926 3.27340698 C64.28747694 6.87049811 66.00537181 10.82912341 67.42985535 15.65290833 C68.70261174 19.26115431 70.9536765 22.2068358 73.1640625 25.296875 C73.98914458 26.52241223 74.81119065 27.75000414 75.62890625 28.98046875 C77.39731405 31.60847109 79.18502455 34.22243853 80.98046875 36.83203125 C81.44001953 37.50613037 81.89957031 38.18022949 82.37304688 38.87475586 C83.25154331 40.16286869 84.13660186 41.44653968 85.02929688 42.72485352 C87.29716461 46.06166135 88.86259802 48.69017174 89.1640625 52.734375 C87.98754883 55.03222656 87.98754883 55.03222656 86.18359375 57.375 C85.53342285 58.24576172 84.88325195 59.11652344 84.21337891 60.01367188 C83.53710449 60.91150391 82.86083008 61.80933594 82.1640625 62.734375 C80.94875397 64.49252784 79.74423686 66.25819051 78.55078125 68.03125 C77.94169922 68.9284375 77.33261719 69.825625 76.70507812 70.75 C75.48034733 72.55676829 74.25637484 74.36405086 73.03320312 76.171875 C71.8107018 77.97156149 70.57267217 79.76081306 69.31817627 81.53834534 C67.80423333 83.78456214 66.46671773 85.9452567 65.15924072 88.29942322 C62.07426769 93.57666433 59.46262791 97.88356721 53.56648254 100.06600952 C49.32890821 100.76786761 45.10617003 100.7116878 40.82421875 100.62890625 C39.25057045 100.64090731 37.67694812 100.65690747 36.1033783 100.67668152 C32.81769536 100.70171731 29.53736028 100.67618473 26.25219727 100.61450195 C22.06712783 100.54031556 17.89564389 100.5979628 13.71136951 100.68972301 C-12.93226052 101.19142344 -12.93226052 101.19142344 -19.24731445 95.7043457 C-21.82416384 92.66892885 -23.48253102 89.38812075 -24.97750854 85.71560669 C-26.31317566 82.63292175 -28.25732687 80.02954683 -30.19921875 77.30078125 C-31.51932171 75.30191567 -32.83579999 73.30065099 -34.1484375 71.296875 C-35.47558489 69.27584491 -36.80496968 67.25628206 -38.13671875 65.23828125 C-38.75627441 64.2961377 -39.37583008 63.35399414 -40.01416016 62.38330078 C-42.13787453 59.29534836 -44.44793446 56.40637014 -46.89135742 53.56616211 C-47.8359375 51.734375 -47.8359375 51.734375 -47.77880859 49.46533203 C-46.49155224 45.73688832 -44.41863018 42.67802626 -42.20703125 39.44921875 C-41.7391066 38.75228409 -41.27118195 38.05534943 -40.78907776 37.33729553 C-39.29139792 35.11029992 -37.7827108 32.89102552 -36.2734375 30.671875 C-35.28505911 29.2068847 -34.29742161 27.74139427 -33.31054688 26.27539062 C-28.16440088 18.63521272 -28.16440088 18.63521272 -26.33239746 16.04690552 C-24.72347577 13.65946575 -24.72347577 13.65946575 -23.30041504 10.61203003 C-17.61984465 0.01470234 -10.93597271 -0.10649315 0 0 Z " fill="#2B8480" transform="translate(485.8359375,732.265625)"/>
<path d="M0 0 C1.5440911 -0.01115435 3.08816671 -0.02468123 4.63221741 -0.04046631 C7.86326159 -0.06271697 11.09207278 -0.05154811 14.32299805 -0.01757812 C18.4521853 0.02249429 22.57453736 -0.02774246 26.70300961 -0.10412979 C29.89060341 -0.15181523 33.0765761 -0.14763052 36.2644062 -0.12847137 C37.78541413 -0.12617382 39.30654751 -0.14060325 40.82722282 -0.17249298 C45.50823654 -0.25513651 49.83442059 -0.145011 54.34765625 1.265625 C57.6752585 4.54468103 59.42701303 8.05423922 61.34765625 12.265625 C62.3000236 13.71002254 63.27976385 15.13739946 64.3046875 16.53125 C64.77269775 17.18641602 65.24070801 17.84158203 65.72290039 18.51660156 C66.19719482 19.1762793 66.67148926 19.83595703 67.16015625 20.515625 C71.15880443 26.129319 75.08975204 31.77893865 78.91015625 37.515625 C79.31532471 38.1230957 79.72049316 38.73056641 80.13793945 39.35644531 C81.21784034 40.98625968 82.28327661 42.62563208 83.34765625 44.265625 C83.97542969 45.12671875 84.60320312 45.9878125 85.25 46.875 C86.34765625 49.265625 86.34765625 49.265625 85.8203125 51.62890625 C83.93979637 54.99587811 81.91164437 58.23854886 79.78515625 61.453125 C79.32061035 62.163479 78.85606445 62.87383301 78.37744141 63.60571289 C77.31883199 65.22343746 76.25813806 66.83979914 75.19580078 68.45507812 C71.91675333 73.44165597 68.65050628 78.43661582 65.38308716 83.43081665 C64.23123884 85.19001694 63.0775764 86.94801619 61.92358398 88.70581055 C61.21532471 89.78644775 60.50706543 90.86708496 59.77734375 91.98046875 C59.14038574 92.95105225 58.50342773 93.92163574 57.84716797 94.92163086 C56.35422655 97.16475519 56.35422655 97.16475519 55.34765625 99.265625 C45.87302523 99.63764644 36.40093226 99.92124047 26.92057228 100.09461975 C22.51716533 100.17787597 18.11877792 100.29056592 13.71826172 100.47265625 C-14.68775981 101.61781074 -14.68775981 101.61781074 -21.1673584 97.77346802 C-24.81880988 94.15595837 -26.5870388 90.03655069 -28.04083252 85.16680908 C-28.84043907 82.68083797 -30.11555275 80.80346335 -31.68359375 78.73046875 C-32.30379395 77.83956543 -32.30379395 77.83956543 -32.93652344 76.93066406 C-33.33774414 76.36057617 -33.73896484 75.79048828 -34.15234375 75.203125 C-35.0642666 73.88443569 -35.97571215 72.56541621 -36.88671875 71.24609375 C-38.29378741 69.21628179 -39.7054606 67.19015335 -41.12695312 65.17041016 C-42.56332405 63.12638033 -43.98380401 61.07205361 -45.40234375 59.015625 C-45.84513672 58.39550537 -46.28792969 57.77538574 -46.74414062 57.13647461 C-49.71383402 52.79564441 -49.71383402 52.79564441 -49.42773438 50.32958984 C-48.54162267 47.97090334 -47.4081189 46.18819251 -45.94921875 44.1328125 C-45.3871875 43.33528564 -44.82515625 42.53775879 -44.24609375 41.71606445 C-43.63765625 40.86616943 -43.02921875 40.01627441 -42.40234375 39.140625 C-41.7784375 38.25914795 -41.15453125 37.3776709 -40.51171875 36.46948242 C-35.75241685 29.76052194 -30.94440661 23.08538576 -26.09277344 16.44287109 C-25.59680664 15.7617627 -25.10083984 15.0806543 -24.58984375 14.37890625 C-24.1196431 13.75412888 -23.64944244 13.1293515 -23.16499329 12.48564148 C-21.59696841 10.32232077 -21.59696841 10.32232077 -20.60325623 7.93968201 C-16.23466106 -0.94700046 -8.77635822 -0.08575671 0 0 Z " fill="#DDB055" transform="translate(493.65234375,188.734375)"/>
<path d="M0 0 C1.55168995 -0.02015083 3.1033492 -0.04280428 4.65496826 -0.06782532 C7.90045498 -0.10648465 11.14264565 -0.10314049 14.38818359 -0.07202148 C17.69912154 -0.04427915 20.99942382 -0.07880264 24.30908203 -0.17456055 C53.10578237 -1.00305974 53.10578237 -1.00305974 59.859375 5.09155273 C62.60337372 8.3307827 64.52161397 11.757716 66.19735718 15.64486694 C67.62128876 18.75474113 69.58540204 21.32252517 71.609375 24.07421875 C72.30804687 25.10289062 73.00671875 26.1315625 73.7265625 27.19140625 C75.55204131 29.86357619 77.44845873 32.47606283 79.3671875 35.08203125 C79.92470703 35.84717041 80.48222656 36.61230957 81.05664062 37.40063477 C82.15724809 38.90852464 83.26764531 40.40932766 84.38867188 41.90209961 C85.13600586 42.93282593 85.13600586 42.93282593 85.8984375 43.984375 C86.34912598 44.59289307 86.79981445 45.20141113 87.26416016 45.82836914 C88.37788756 48.21120532 87.90992151 49.16885859 87.109375 51.63671875 C85.60532405 54.0980086 84.06717335 56.47827062 82.4453125 58.859375 C81.97501617 59.56009628 81.50471985 60.26081757 81.02017212 60.98277283 C79.51364849 63.22528483 77.99935731 65.4624146 76.484375 67.69921875 C74.51085436 70.62614805 72.5403981 73.55513287 70.5703125 76.484375 C70.09454773 77.1905899 69.61878296 77.89680481 69.12860107 78.62442017 C65.81952262 83.54672295 62.59283219 88.51131153 59.43603516 93.53295898 C58.35282113 95.25067251 57.23582516 96.94704351 56.109375 98.63671875 C53.20275879 99.08496094 53.20275879 99.08496094 49.43164062 99.18359375 C48.74515442 99.20491364 48.05866821 99.22623352 47.35137939 99.24819946 C45.07281353 99.31257093 42.79483259 99.35238163 40.515625 99.38671875 C39.34558174 99.40693085 39.34558174 99.40693085 38.15190125 99.42755127 C34.01667709 99.49605296 29.88174441 99.54399297 25.74609375 99.57714844 C21.49156502 99.61578184 17.24251668 99.72914328 12.98996735 99.85986328 C9.70569005 99.94626716 6.42268659 99.97414522 3.13737488 99.98693848 C1.57107552 100.00330332 0.00483401 100.04154449 -1.56034851 100.10290527 C-13.4228845 100.53966963 -13.4228845 100.53966963 -17.51031494 97.38772583 C-20.94452826 93.86873182 -23.40040029 89.85264026 -25.890625 85.63671875 C-27.19466352 83.69351365 -28.50573267 81.75498052 -29.828125 79.82421875 C-30.46105469 78.85742188 -31.09398437 77.890625 -31.74609375 76.89453125 C-34.33293461 72.96479486 -36.97950668 69.07889333 -39.640625 65.19921875 C-40.33079712 64.18734497 -40.33079712 64.18734497 -41.03491211 63.1550293 C-41.69825562 62.18883667 -41.69825562 62.18883667 -42.375 61.203125 C-42.79716797 60.5858252 -43.21933594 59.96852539 -43.65429688 59.33251953 C-45.00039004 57.41864617 -45.00039004 57.41864617 -47.28125 55.0390625 C-48.890625 52.63671875 -48.890625 52.63671875 -48.9375 49.7421875 C-47.64696004 45.91390665 -45.60849291 43.08261271 -43.140625 39.94921875 C-42.13638842 38.62983258 -41.13522742 37.30810133 -40.13671875 35.984375 C-39.60804199 35.2845752 -39.07936523 34.58477539 -38.53466797 33.86376953 C-35.09895734 29.20969285 -31.89461335 24.39319208 -28.65917969 19.59887695 C-27.65951318 18.1231408 -26.64520551 16.65718888 -25.61470032 15.20281982 C-23.83811712 12.64976599 -23.83811712 12.64976599 -22.38304138 9.82872009 C-16.73863177 0.26355665 -10.24476422 -0.06952854 0 0 Z " fill="#FDC54F" transform="translate(607.890625,243.36328125)"/>
<path d="M0 0 C1.54406426 -0.02983433 3.0880746 -0.0625856 4.63201904 -0.0980835 C7.85776918 -0.15456553 11.07817573 -0.15699075 14.30419922 -0.12402344 C17.59116372 -0.09601115 20.85885377 -0.15128806 24.14306641 -0.28808594 C50.30277023 -1.36843517 50.30277023 -1.36843517 57.78393555 4.23901367 C62.33175031 9.30641375 65.11346276 14.96631868 67.68078613 21.22213745 C70.54015466 27.62371978 74.73762404 33.32220606 78.671875 39.1015625 C79.05988281 39.67519531 79.44789063 40.24882813 79.84765625 40.83984375 C80.62623733 41.98764884 81.41590638 43.12798858 82.21484375 44.26171875 C85.04514544 48.50234142 85.04514544 48.50234142 84.75488281 51.55102539 C83.93037045 54.32212887 82.85320972 56.31607117 81.28125 58.73828125 C80.71897705 59.61299072 80.1567041 60.4877002 79.57739258 61.38891602 C78.96919678 62.31760498 78.36100098 63.24629395 77.734375 64.203125 C76.80177856 65.64739868 76.80177856 65.64739868 75.8503418 67.12084961 C73.90291815 70.13265161 71.94456331 73.13711853 69.984375 76.140625 C68.74567974 78.046606 67.50738568 79.95284781 66.26953125 81.859375 C64.56979365 84.47671778 62.86877972 87.09313224 61.16113281 89.70532227 C60.65549805 90.47932373 60.14986328 91.2533252 59.62890625 92.05078125 C59.18909424 92.72246338 58.74928223 93.39414551 58.29614258 94.08618164 C56.89826506 96.1674353 56.89826506 96.1674353 55.82011414 98.71569824 C53.984375 101.140625 53.984375 101.140625 51.00219727 101.86302185 C49.78072998 101.90621048 48.5592627 101.94939911 47.30078125 101.99389648 C46.2878727 102.03836159 46.2878727 102.03836159 45.25450134 102.08372498 C43.01850162 102.17209051 40.78421991 102.22073718 38.546875 102.26171875 C37.39662842 102.28854075 37.39662842 102.28854075 36.22314453 102.31590462 C32.15804332 102.40847638 28.093805 102.46981034 24.02783203 102.5065918 C20.67600301 102.54188958 17.33290185 102.63196736 13.98388672 102.77319336 C-12.93483676 103.8861431 -12.93483676 103.8861431 -19.56188965 99.42752075 C-23.3994122 95.30895911 -25.39318089 90.73681219 -27.14082336 85.44572449 C-28.58468849 81.64114453 -30.90868546 78.49150358 -33.265625 75.203125 C-34.0879264 73.99050642 -34.9074104 72.77596699 -35.72265625 71.55859375 C-36.30200928 70.69886963 -36.30200928 70.69886963 -36.89306641 69.82177734 C-39.6807739 65.64688527 -42.36398388 61.40294468 -45.015625 57.140625 C-45.61503906 56.31820312 -46.21445312 55.49578125 -46.83203125 54.6484375 C-48.015625 52.140625 -48.015625 52.140625 -47.484375 49.75390625 C-45.65345911 46.49623942 -43.63439036 43.4021976 -41.515625 40.328125 C-37.49692986 34.41211953 -33.63616073 28.42480141 -29.94335938 22.29956055 C-29.18793051 21.06735816 -28.41028302 19.8485528 -27.61309814 18.64294434 C-26.38089757 16.71279651 -25.23043254 14.73031311 -24.11651611 12.72956848 C-17.93786782 2.26368069 -12.04604291 -0.06477935 0 0 Z " fill="#61BCA6" transform="translate(383.015625,567.859375)"/>
<path d="M0 0 C9.89040241 -0.58308568 19.77664406 -1.02520312 29.68081665 -1.2953043 C34.28269728 -1.42507799 38.87272603 -1.6003015 43.46777344 -1.88598633 C73.03777807 -3.67669123 73.03777807 -3.67669123 81.17599487 2.35321045 C86.37472632 8.14352855 89.56611555 14.63543268 92.53318787 21.771698 C94.91732915 27.01894671 98.22215058 31.57602735 101.5625 36.25 C102.65025773 37.83640529 103.73546715 39.42456583 104.81640625 41.015625 C105.26443604 41.66821289 105.71246582 42.32080078 106.17407227 42.99316406 C107.29878327 45.72598241 106.87585629 47.20875275 106 50 C104.94702148 52.02270508 104.94702148 52.02270508 103.62109375 54.01953125 C103.14143158 54.74616974 102.66176941 55.47280823 102.16757202 56.22146606 C101.03265375 57.92117089 99.88158019 59.61022202 98.71305847 61.28700256 C95.37390509 66.1379392 92.51492338 70.866005 90.12060547 76.25244141 C82.73859231 91.585955 82.73859231 91.585955 75.13983536 94.78251266 C64.29360216 97.99591293 52.47155592 97.08926625 41.31182861 96.63885498 C37.80551253 96.53683853 34.30797414 96.5884349 30.80105305 96.63747787 C5.70898197 96.91290248 5.70898197 96.91290248 -1.55020142 92.42248535 C-5.40471586 88.63459064 -7.34895956 84.26719049 -9.1333313 79.23104858 C-10.49405547 75.72816251 -12.57851181 72.820974 -14.72265625 69.7578125 C-15.45639651 68.6445024 -16.18629361 67.52864882 -16.91210938 66.41015625 C-17.62173828 65.32605469 -18.33136719 64.24195313 -19.0625 63.125 C-19.81448825 61.97528339 -20.56644136 60.82554379 -21.31835938 59.67578125 C-25.1423173 53.82676376 -25.1423173 53.82676376 -29 48 C-28.63225639 44.97838596 -27.42790756 42.79999252 -25.8046875 40.26171875 C-25.34296143 39.53460693 -24.88123535 38.80749512 -24.40551758 38.05834961 C-23.90044678 37.27596924 -23.39537598 36.49358887 -22.875 35.6875 C-22.35381592 34.87095947 -21.83263184 34.05441895 -21.2956543 33.21313477 C-16.19002669 25.23722757 -11.00885242 17.30934085 -5.81396484 9.39135742 C-5.20117676 8.45654541 -4.58838867 7.5217334 -3.95703125 6.55859375 C-3.41022705 5.72642334 -2.86342285 4.89425293 -2.30004883 4.03686523 C-0.97960174 2.04607034 -0.97960174 2.04607034 0 0 Z " fill="#0B2B32" transform="translate(696,631)"/>
<path d="M0 0 C2.97181139 0.10030639 5.93918622 0.09199943 8.91235924 0.08176708 C11.79273216 0.08059708 14.67031509 0.1312251 17.54982376 0.19890785 C18.91704717 0.22800347 20.28458507 0.24510186 21.65211105 0.24947166 C32.20003291 0.34399883 32.20003291 0.34399883 36.19543457 4.0874939 C37.98747485 6.61759516 39.44378135 9.12694645 40.84741211 11.88751221 C41.66180801 13.17753232 42.48699166 14.46094208 43.33178711 15.73126221 C44.09004553 16.9481169 44.84521204 18.16690324 45.59741211 19.38751221 C46.00934814 20.0511377 46.42128418 20.71476318 46.84570312 21.39849854 C51.51081195 28.92825525 56.1572787 36.47207156 60.72583008 44.06085205 C61.68317583 45.62002944 62.69913533 47.14296286 63.72631836 48.65704346 C64.84741211 50.88751221 64.84741211 50.88751221 64.59570312 52.72491455 C63.69831978 55.31839632 62.45891878 57.39583222 60.99584961 59.71954346 C60.38999023 60.6856958 59.78413086 61.65184814 59.15991211 62.64727783 C58.20084961 64.15838135 58.20084961 64.15838135 57.22241211 65.70001221 C56.34456055 67.10090088 56.34456055 67.10090088 55.44897461 68.53009033 C54.11563722 70.64717666 52.74307926 72.73980812 51.34326172 74.8135376 C49.2711579 78.00177676 47.72857919 81.29234149 46.16601562 84.75640869 C38.68919809 100.05310219 38.68919809 100.05310219 30.39001465 103.19741821 C21.07847298 105.10975937 11.79155761 104.81932519 2.3416748 104.39941406 C-0.74231915 104.29994355 -3.81738484 104.34672576 -6.9021101 104.39123917 C-29.04188414 104.63871046 -29.04188414 104.63871046 -35.46768188 100.33807373 C-38.9718708 96.68499312 -40.85212306 92.56210141 -42.46633911 87.81173706 C-43.37669751 85.2591143 -44.72390639 83.13056771 -46.21899414 80.87969971 C-47.50620499 78.76052017 -48.78948137 76.63907295 -50.06933594 74.51544189 C-52.26566003 70.89284755 -54.50332414 67.32994295 -56.91821289 63.84844971 C-57.34803467 63.21954834 -57.77785645 62.59064697 -58.22070312 61.94268799 C-59.3863922 60.25167268 -60.57533671 58.57675495 -61.76586914 56.90313721 C-63.15258789 53.88751221 -63.15258789 53.88751221 -62.56665039 50.76641846 C-61.27540139 48.13754964 -59.9652753 45.9157274 -58.21508789 43.57501221 C-55.51305484 39.84230675 -52.93485387 36.06525115 -50.46208191 32.17874146 C-49.53992502 30.74601466 -48.60405589 29.32197195 -47.65141296 27.90933228 C-45.04132405 24.010693 -42.77944789 20.20105112 -40.87329102 15.90997314 C-32.16019563 -1.99732294 -17.61105023 -0.75735483 0 0 Z " fill="#DAD6A5" transform="translate(399.152587890625,456.11248779296875)"/>
<path d="M0 0 C1.21854172 -0.03535355 2.43708344 -0.07070709 3.69255066 -0.10713196 C5.02978021 -0.13343086 6.36704865 -0.15781216 7.7043457 -0.18041992 C8.37779337 -0.19231543 9.05124104 -0.20421093 9.74509621 -0.2164669 C13.31274628 -0.27579765 16.88026612 -0.31961155 20.44824219 -0.35351562 C23.39539437 -0.38462549 26.33925229 -0.44717964 29.28515625 -0.53808594 C32.84759542 -0.64794096 36.40702304 -0.70314625 39.97107887 -0.71991539 C41.98077248 -0.74251428 43.98963308 -0.81875186 45.99797058 -0.89595032 C49.70604781 -0.87905313 52.66376359 -0.74609249 56.19262695 0.40161133 C59.44020416 3.68669896 61.25830637 7.2453992 63.19262695 11.40161133 C64.1593114 13.03022298 65.14190078 14.6496528 66.1496582 16.25317383 C68.6607937 20.43825567 71.15408981 24.63399128 73.6496582 28.82836914 C75.15624498 31.34093633 76.68645675 33.83750692 78.22387695 36.33129883 C79.1510498 37.85468185 80.07813734 39.3781168 81.00512695 40.90161133 C81.44381104 41.60108887 81.88249512 42.30056641 82.33447266 43.02124023 C85.26124007 47.87577179 85.26124007 47.87577179 84.93408203 50.38305664 C84.15517329 52.50357606 83.22277153 54.20785648 81.99731445 56.10473633 C81.53566895 56.82661133 81.07402344 57.54848633 80.59838867 58.29223633 C80.0932373 59.07083008 79.58808594 59.84942383 79.06762695 60.65161133 C77.98354341 62.34383929 76.90024992 64.03657357 75.81762695 65.72973633 C75.23625977 66.6365918 74.65489258 67.54344727 74.0559082 68.4777832 C70.68847886 73.76189403 67.38144153 79.08377762 64.06762695 84.40161133 C62.79463901 86.44355833 61.52123246 88.48524444 60.24731445 90.52661133 C59.70574707 91.39543945 59.16417969 92.26426758 58.60620117 93.15942383 C57.49414321 94.92335134 56.34929501 96.66660925 55.19262695 98.40161133 C52.67910767 98.89022827 52.67910767 98.89022827 49.46459961 99.04370117 C47.66099472 99.13535049 47.66099472 99.13535049 45.82095337 99.22885132 C40.28481525 99.41556136 34.7500685 99.57237734 29.21166992 99.67163086 C26.29567813 99.72928988 23.38944869 99.84005074 20.47729492 99.99975586 C-2.83974195 101.24881421 -2.83974195 101.24881421 -9.2286377 96.66409302 C-13.23401433 92.2753801 -15.61045346 87.25270729 -17.81256104 81.78039551 C-19.18536467 78.49776168 -20.96655776 75.7109698 -22.90112305 72.72583008 C-24.03828652 70.84798053 -25.1737805 68.96911868 -26.30737305 67.08911133 C-27.46240201 65.17561334 -28.61861636 63.26283027 -29.77612305 61.35083008 C-30.29561523 60.48506348 -30.81510742 59.61929688 -31.3503418 58.72729492 C-32.59513417 56.74038271 -33.92030044 54.90858042 -35.33862305 53.04614258 C-36.80737305 50.40161133 -36.80737305 50.40161133 -36.3815918 48.04614258 C-34.18363906 44.35380013 -31.94929602 40.70035917 -29.61987305 37.08911133 C-28.54487681 35.40731637 -27.47069972 33.72499763 -26.3972168 32.04223633 C-25.82213379 31.14182617 -25.24705078 30.24141602 -24.65454102 29.3137207 C-22.66808682 26.18202289 -20.70580123 23.03615585 -18.7487793 19.88598633 C-18.07290771 18.79842041 -17.39703613 17.71085449 -16.70068359 16.59033203 C-15.36835181 14.44412877 -14.03774912 12.29685102 -12.70898438 10.1484375 C-12.09949951 9.1685083 -11.49001465 8.1885791 -10.86206055 7.17895508 C-10.32049316 6.30489014 -9.77892578 5.4308252 -9.22094727 4.53027344 C-6.44152199 0.3448142 -4.90830119 0.13110336 0 0 Z " fill="#A38D57" transform="translate(269.807373046875,296.598388671875)"/>
<path d="M0 0 C1.35896901 -0.02506784 2.71792211 -0.0510122 4.07685852 -0.07778931 C6.92425015 -0.12414903 9.77017115 -0.14118076 12.61791992 -0.14111328 C15.52603086 -0.14501406 18.42557748 -0.20040326 21.33178711 -0.30517578 C44.57580881 -1.13104443 44.57580881 -1.13104443 50.54885864 2.62435913 C53.98919104 6.02496166 55.92540845 9.9212698 57.60580444 14.41394043 C58.49753475 16.71968175 59.75087426 18.65196725 61.1484375 20.68359375 C61.88939296 21.87855428 62.62777689 23.07511409 63.36328125 24.2734375 C65.82986177 28.28355282 68.31414162 32.26454614 70.96484375 36.15625 C71.38886475 36.786521 71.81288574 37.41679199 72.24975586 38.06616211 C73.05339033 39.25505954 73.86871201 40.43617135 74.69750977 41.60766602 C76.29229419 43.98421456 77.29245758 45.7023615 77.33984375 48.59765625 C75.80747952 52.45160989 73.70074811 55.83707322 71.48828125 59.3359375 C71.00270752 60.11638428 70.51713379 60.89683105 70.0168457 61.70092773 C68.45275162 64.20932395 66.87735979 66.7103727 65.30078125 69.2109375 C64.23802199 70.9073897 63.17552082 72.6040036 62.11328125 74.30078125 C56.49909782 83.24294662 56.49909782 83.24294662 54.77035522 85.8568573 C53.27015843 88.16006091 53.27015843 88.16006091 52.18736267 90.55522156 C50.19284542 94.37483983 48.69302707 96.75636348 44.48997498 98.12867737 C40.90039689 98.57251661 37.40996058 98.72022634 33.79296875 98.7578125 C32.47595978 98.79013977 31.15895081 98.82246704 29.80203247 98.85577393 C27.01582236 98.91404489 24.23209786 98.93484991 21.4453125 98.93359375 C18.60393905 98.93733144 15.77674559 99.00640016 12.93847656 99.13867188 C-9.69230383 100.17785821 -9.69230383 100.17785821 -16.09512329 95.43688965 C-20.06798389 91.02063907 -22.48717817 86.00129308 -24.71704102 80.53747559 C-26.01006241 77.47462514 -27.71549175 74.78107868 -29.5390625 72.0078125 C-31.10407241 69.46155097 -32.66580873 66.91334872 -34.22460938 64.36328125 C-34.74087891 63.52410156 -35.25714844 62.68492187 -35.7890625 61.8203125 C-36.51391846 60.63791992 -36.51391846 60.63791992 -37.25341797 59.43164062 C-38.63085396 57.31594361 -40.1297873 55.38565296 -41.703125 53.4140625 C-43.69921875 50.2109375 -43.69921875 50.2109375 -43.31640625 47.78125 C-42.78273438 46.93304688 -42.2490625 46.08484375 -41.69921875 45.2109375 C-41.19310059 44.33646973 -41.19310059 44.33646973 -40.67675781 43.44433594 C-39.43044665 41.29983935 -38.13284499 39.19295839 -36.82421875 37.0859375 C-36.34388184 36.30694092 -35.86354492 35.52794434 -35.36865234 34.7253418 C-33.8180631 32.21682964 -32.25993874 29.713158 -30.69921875 27.2109375 C-30.168125 26.35870605 -29.63703125 25.50647461 -29.08984375 24.62841797 C-27.50545151 22.0907946 -25.91618506 19.55631527 -24.32421875 17.0234375 C-23.83711426 16.24661621 -23.35000977 15.46979492 -22.84814453 14.66943359 C-22.14407471 13.5549585 -22.14407471 13.5549585 -21.42578125 12.41796875 C-21.01924316 11.7731958 -20.61270508 11.12842285 -20.19384766 10.46411133 C-19.70062012 9.72056396 -19.20739258 8.9770166 -18.69921875 8.2109375 C-18.43475449 7.62439392 -18.17029022 7.03785034 -17.89781189 6.43353271 C-14.04446808 -0.83275617 -7.46173849 0.06276615 0 0 Z " fill="#DD9421" transform="translate(381.69921875,243.7890625)"/>
<path d="M0 0 C1.22557617 -0.05779633 2.45115234 -0.11559265 3.71386719 -0.17514038 C5.05524997 -0.21447076 6.39673075 -0.25057175 7.73828125 -0.28369141 C8.41685181 -0.30248981 9.09542236 -0.32128822 9.79455566 -0.34065628 C13.39270765 -0.4358068 16.99027834 -0.50313669 20.58935547 -0.55078125 C23.55350029 -0.59506459 26.50837925 -0.69205813 29.46923828 -0.83789062 C53.22089473 -1.98266991 53.22089473 -1.98266991 59.40805054 2.41537476 C63.17325948 6.5847895 65.29571312 11.32476283 67.21282959 16.5579834 C68.30649325 19.40553976 69.83492979 21.81617893 71.5390625 24.33740234 C72.01794922 25.09601563 72.49683594 25.85462891 72.99023438 26.63623047 C73.44333984 27.35101563 73.89644531 28.06580078 74.36328125 28.80224609 C74.83572266 29.55183594 75.30816406 30.30142578 75.79492188 31.07373047 C76.50358398 32.19424805 76.50358398 32.19424805 77.2265625 33.33740234 C77.908396 34.41852295 77.908396 34.41852295 78.60400391 35.52148438 C79.62674436 37.08959436 80.68784088 38.63300075 81.77490234 40.15722656 C82.33387207 40.94629395 82.8928418 41.73536133 83.46875 42.54833984 C83.98590576 43.25659912 84.50306152 43.9648584 85.03588867 44.69458008 C86.05078125 46.73974609 86.05078125 46.73974609 85.78540039 48.87084961 C84.86677718 51.20785882 83.67968862 53.13725367 82.30078125 55.23974609 C81.67558594 56.20009766 81.05039062 57.16044922 80.40625 58.14990234 C79.85976807 58.98158936 79.85976807 58.98158936 79.30224609 59.83007812 C77.85189157 62.04324103 76.4139271 64.26421894 74.9765625 66.48583984 C68.66410729 76.23241791 68.66410729 76.23241791 66.8465271 78.92422485 C64.99473572 81.72785967 64.99473572 81.72785967 63.48703003 84.80892944 C58.96227711 93.04152255 58.96227711 93.04152255 53.88749695 94.8952179 C50.02313738 95.37691836 46.25190175 95.49142146 42.3671875 95.43896484 C40.94282908 95.45470082 39.51850192 95.47354026 38.09422302 95.49531555 C35.11819746 95.52642578 32.14648296 95.51303106 29.1706543 95.46899414 C26.13016281 95.42765741 23.10093795 95.44847716 20.0612793 95.53051758 C-4.13232071 96.18285214 -4.13232071 96.18285214 -10.1244812 92.34741211 C-13.37845489 88.94916277 -14.92636578 85.07549376 -16.30160522 80.63381958 C-17.25149259 77.85568662 -18.79708713 75.61924097 -20.4609375 73.21630859 C-20.99138672 72.40291016 -21.52183594 71.58951172 -22.06835938 70.75146484 C-22.58591797 69.96384766 -23.10347656 69.17623047 -23.63671875 68.36474609 C-24.16587891 67.55392578 -24.69503906 66.74310547 -25.24023438 65.90771484 C-26.03010742 64.69921875 -26.03010742 64.69921875 -26.8359375 63.46630859 C-27.34431152 62.68288086 -27.85268555 61.89945312 -28.37646484 61.09228516 C-29.45099266 59.48499705 -30.56568311 57.90402995 -31.71337891 56.34814453 C-32.27202637 55.57760742 -32.83067383 54.80707031 -33.40625 54.01318359 C-33.91776611 53.33433105 -34.42928223 52.65547852 -34.95629883 51.95605469 C-36.41612246 48.69756466 -36.00243162 47.1613565 -34.94921875 43.73974609 C-33.25230249 40.61093552 -31.27877743 37.69852704 -29.26953125 34.76318359 C-28.70096405 33.91551422 -28.13239685 33.06784485 -27.54660034 32.19448853 C-25.73212694 29.49458916 -23.90332402 26.80474832 -22.07421875 24.11474609 C-20.85063391 22.29766271 -19.62796733 20.47996063 -18.40625 18.66162109 C-16.16316847 15.33026589 -13.91749464 12.00075737 -11.66064453 8.67871094 C-10.98233078 7.67993423 -10.98233078 7.67993423 -10.29031372 6.66098022 C-9.84775238 6.02697296 -9.40519104 5.3929657 -8.94921875 4.73974609 C-8.52099823 4.01376221 -8.09277771 3.28777832 -7.65158081 2.53979492 C-5.22376656 -0.02733477 -3.48840759 0.14676075 0 0 Z " fill="#1A6565" transform="translate(269.94921875,408.26025390625)"/>
<path d="M0 0 C0.65854603 -0.02386717 1.31709206 -0.04773434 1.99559402 -0.07232475 C5.48961289 -0.19781212 8.98104093 -0.27685079 12.47705078 -0.31665039 C15.34281217 -0.35613731 18.18781916 -0.47332611 21.04736328 -0.6652832 C43.88424127 -2.16879903 43.88424127 -2.16879903 51.23696899 4.04629517 C56.20394648 9.95170592 59.63160568 16.50366039 62.86250305 23.47505188 C65.27067539 28.41864605 68.29470092 32.91278981 71.3515625 37.47265625 C72.32218193 38.97712527 73.29022183 40.48326687 74.25390625 41.9921875 C74.64956787 42.60811768 75.04522949 43.22404785 75.45288086 43.85864258 C76.53619679 45.88906885 77.18619972 47.35915152 77.4140625 49.66015625 C76.41699219 51.86401367 76.41699219 51.86401367 74.8359375 54.265625 C73.96763306 55.60548462 73.96763306 55.60548462 73.08178711 56.97241211 C72.44893799 57.92124268 71.81608887 58.87007324 71.1640625 59.84765625 C70.20802124 61.31247437 70.20802124 61.31247437 69.23266602 62.80688477 C67.92779905 64.80483502 66.61796656 66.79955096 65.30322266 68.79101562 C63.58670719 71.39795408 61.89094201 74.01645627 60.20703125 76.64453125 C56.2807874 82.76803682 56.2807874 82.76803682 54.81640625 85.03125 C54.47085693 85.5667749 54.12530762 86.1022998 53.76928711 86.65405273 C53.32206299 87.31606689 52.87483887 87.97808105 52.4140625 88.66015625 C52.15451279 89.23612045 51.89496307 89.81208466 51.62754822 90.40550232 C50.42763877 92.66246155 49.41245786 94.04691683 47.4140625 95.66015625 C42.92094295 96.79371184 38.47960017 96.76017326 33.86328125 96.765625 C32.52193976 96.78306017 31.18061496 96.80182475 29.83930969 96.82185364 C27.03051622 96.85468505 24.22324861 96.8597441 21.41430664 96.84741211 C17.83054702 96.83553393 14.25450222 96.91021083 10.67228985 97.00841808 C7.90162182 97.07157064 5.1327841 97.07905505 2.36149025 97.07125282 C0.40473959 97.07798242 -1.55159589 97.13805432 -3.50740051 97.19926453 C-12.22807812 97.04224851 -12.22807812 97.04224851 -16.06716919 93.13464355 C-18.13261461 90.05883443 -19.88589079 86.94966642 -21.5859375 83.66015625 C-22.39676268 82.39753186 -23.22493277 81.14555243 -24.08300781 79.91455078 C-29.25065104 72.16308594 -34.41829427 64.41162109 -39.5859375 56.66015625 C-40.32835693 55.59442383 -41.07077637 54.52869141 -41.83569336 53.43066406 C-43.5859375 50.66015625 -43.5859375 50.66015625 -43.63671875 48.26171875 C-42.13004326 44.53143669 -40.02046654 41.36038903 -37.7734375 38.03515625 C-36.77220491 36.52425358 -35.77225322 35.01250149 -34.7734375 33.5 C-34.25136719 32.71222168 -33.72929687 31.92444336 -33.19140625 31.11279297 C-29.98502218 26.2144757 -26.90694758 21.2333788 -23.82299805 16.25732422 C-23.35676025 15.51240723 -22.89052246 14.76749023 -22.41015625 14 C-22.00885498 13.35409912 -21.60755371 12.70819824 -21.1940918 12.04272461 C-20.66340088 11.25647705 -20.13270996 10.47022949 -19.5859375 9.66015625 C-19.24449707 9.00242722 -18.90305664 8.34469818 -18.55126953 7.66703796 C-14.05579788 0.10565677 -8.26331223 0.24067741 0 0 Z " fill="#1C5356" transform="translate(381.5859375,682.33984375)"/>
<path d="M0 0 C2.96038496 0.05054912 5.90238486 0.02292712 8.86132812 -0.08203125 C32.33832112 -0.91323396 32.33832112 -0.91323396 38.98831177 3.95062256 C42.96882468 8.34416151 45.32943141 13.35189102 47.54309082 18.80535889 C48.98507301 22.1625196 50.87739958 24.89796734 52.97900391 27.88623047 C53.92936523 29.31708984 53.92936523 29.31708984 54.89892578 30.77685547 C56.17047364 32.68350589 57.44678577 34.5869849 58.72705078 36.48779297 C59.34644531 37.42365234 59.96583984 38.35951172 60.60400391 39.32373047 C61.15080811 40.14019043 61.6976123 40.95665039 62.26098633 41.79785156 C63.65166828 44.3410367 64.29610388 46.29225196 64.56103516 49.17529297 C63.35782249 51.62480008 62.14332914 53.68425554 60.62353516 55.92529297 C59.70674231 57.33146071 58.79008561 58.73771722 57.87353516 60.14404297 C57.35533203 60.92779297 56.83712891 61.71154297 56.30322266 62.51904297 C54.31959612 65.54340629 52.37598054 68.59148185 50.43603516 71.64404297 C49.71725793 72.77461126 48.99842637 73.90514499 48.27954102 75.03564453 C47.92294403 75.596427 47.56634705 76.15720947 47.19894409 76.73498535 C45.47043638 79.45182138 43.73853347 82.16642117 42.00244141 84.87841797 C41.41148682 85.80299805 40.82053223 86.72757813 40.21166992 87.68017578 C39.66696045 88.50356445 39.12225098 89.32695313 38.56103516 90.17529297 C38.15829376 90.87738892 37.75555237 91.57948486 37.34060669 92.30285645 C35.56103516 94.17529297 35.56103516 94.17529297 32.80854797 94.65631104 C31.69602158 94.64742859 30.58349518 94.63854614 29.43725586 94.62939453 C28.17617508 94.62909241 26.9150943 94.62879028 25.61579895 94.628479 C24.23946503 94.60805243 22.86313754 94.58718844 21.48681641 94.56591797 C20.0786367 94.55845645 18.67044661 94.55276309 17.26225281 94.54876709 C13.55808787 94.53350335 9.85455154 94.49421633 6.15063477 94.44995117 C2.3702037 94.40901373 -1.41032908 94.39075941 -5.19091797 94.37060547 C-12.60722 94.3277218 -20.0230043 94.25946277 -27.43896484 94.17529297 C-27.76092834 93.58189117 -28.08289185 92.98848938 -28.41461182 92.37710571 C-30.69914631 88.20813525 -32.99149626 84.16960464 -35.79833984 80.32373047 C-39.63984973 74.94436803 -43.17198684 69.39548524 -46.68896484 63.80029297 C-47.90099101 61.87485899 -49.11447654 59.95034269 -50.32958984 58.02685547 C-50.85584961 57.18977051 -51.38210937 56.35268555 -51.92431641 55.49023438 C-53.37616029 53.15069975 -53.37616029 53.15069975 -55.19580078 51.18457031 C-56.43896484 49.17529297 -56.43896484 49.17529297 -56.35668945 46.79199219 C-55.23139369 43.58344736 -53.66617206 41.12319495 -51.75537109 38.30810547 C-51.38097397 37.7514621 -51.00657684 37.19481873 -50.62083435 36.62130737 C-49.42191097 34.84240381 -48.21205392 33.07127271 -47.00146484 31.30029297 C-45.83241972 29.57313407 -44.66570303 27.84451951 -43.503479 26.11276245 C-42.70558788 24.9403246 -41.89264828 23.77800286 -41.06585693 22.62576294 C-38.85670936 19.50911228 -37.12799795 16.58560833 -35.73095703 13.02246094 C-29.22542201 -1.99046518 -14.22863289 -0.25209412 0 0 Z " fill="#1F504E" transform="translate(290.43896484375,628.82470703125)"/>
<path d="M0 0 C2.94599136 0.05888892 5.88828081 0.02865037 8.83448219 -0.00249481 C11.68531689 -0.02316946 14.53397282 0.00584621 17.38447189 0.05027771 C19.39551705 0.07492858 21.40689857 0.06390315 23.4180603 0.05212402 C32.32055367 0.37326509 32.32055367 0.37326509 35.90359497 3.68963623 C37.71087262 6.23637434 39.16384198 8.76713845 40.58563232 11.54418945 C41.64352083 13.24469004 42.71229565 14.93851522 43.79656982 16.62231445 C44.85442634 18.34433003 45.90905792 20.06833044 46.96063232 21.79418945 C51.59279327 29.39282402 51.59279327 29.39282402 56.46063232 36.84106445 C56.88682861 37.47496094 57.3130249 38.10885742 57.75213623 38.76196289 C58.88065902 40.42624902 60.02551528 42.07942707 61.17156982 43.73168945 C62.87202451 47.11380927 62.67848657 47.99518277 61.58563232 51.54418945 C60.42309235 53.37470437 59.18476221 55.15803657 57.89813232 56.90356445 C55.0824859 60.94609906 53.11537821 64.42213732 51.54598999 69.13619995 C48.6601345 77.70486211 44.82053172 86.05201999 37.17218018 91.30456543 C27.39997098 95.9879759 14.8058906 95.26095192 4.18048096 95.18431091 C1.96615233 95.16922706 -0.24738219 95.17649872 -2.46173096 95.18493652 C-27.37285916 95.15045097 -27.37285916 95.15045097 -33.20074463 89.72436523 C-35.66782692 86.63966214 -37.04510371 83.2388795 -38.41436768 79.54418945 C-39.74893217 77.35570624 -39.74893217 77.35570624 -41.12921143 75.52075195 C-42.28118322 73.78942155 -43.42746844 72.05447962 -44.57183838 70.31811523 C-46.77042993 66.98902565 -49.00235278 63.6930345 -51.30499268 60.43481445 C-51.77300293 59.76240723 -52.24101318 59.09 -52.72320557 58.3972168 C-53.62187196 57.10786048 -54.53204475 55.82642516 -55.45513916 54.55444336 C-57.25731473 51.94469421 -58.41902248 50.1642095 -58.39483643 46.94262695 C-57.23306694 44.10068886 -55.8020213 41.81226606 -54.03936768 39.29418945 C-53.31878174 38.24489258 -52.5981958 37.1955957 -51.85577393 36.11450195 C-51.462771 35.54376953 -51.06976807 34.97303711 -50.66485596 34.38500977 C-48.37740315 31.01769345 -46.18152567 27.59104294 -43.97686768 24.16918945 C-43.55937256 23.52304687 -43.14187744 22.8769043 -42.71173096 22.21118164 C-42.28489014 21.55021484 -41.85804932 20.88924805 -41.41827393 20.20825195 C-40.92907471 19.51054688 -40.43987549 18.8128418 -39.93585205 18.09399414 C-38.24983441 15.46656783 -38.24983441 15.46656783 -37.1741333 11.93969727 C-31.1556077 -3.52765396 -13.93879286 -0.38764987 0 0 Z " fill="#174145" transform="translate(292.41436767578125,517.455810546875)"/>
<path d="M0 0 C2.89393502 0.09760884 5.78403699 0.09421373 8.67933369 0.08875751 C11.47975773 0.09121163 14.27774324 0.14064986 17.07735252 0.20577049 C19.05229097 0.2479944 21.02773672 0.26386213 23.00306702 0.27919006 C31.71212871 0.69406668 31.71212871 0.69406668 34.93673706 3.70692444 C36.48383101 5.99970816 37.67655457 8.2614641 38.85357666 10.76055908 C39.7882442 12.26308468 40.73921497 13.75570951 41.71295166 15.23321533 C43.19593941 17.58222942 44.67349597 19.93456994 46.14923096 22.28814697 C48.69735444 26.35021829 51.26038388 30.39825437 53.88873291 34.40899658 C54.35762939 35.13336914 54.82652588 35.8577417 55.30963135 36.60406494 C56.19491835 37.9707148 57.08971723 39.33126322 57.99517822 40.68463135 C60.91835199 45.23545417 60.91835199 45.23545417 60.61529541 47.69219971 C59.75347003 50.03238707 58.6600662 51.9636846 57.33404541 54.07696533 C56.81181396 54.91493652 56.28958252 55.75290771 55.75152588 56.61627197 C55.18707764 57.50951172 54.62262939 58.40275146 54.04107666 59.32305908 C53.46373779 60.24530273 52.88639893 61.16754639 52.29156494 62.11773682 C50.48395765 65.0018867 48.66880333 67.88120034 46.85357666 70.76055908 C45.71121828 72.5832055 44.56927722 74.40611356 43.42779541 76.22930908 C42.36185067 77.92751552 41.29546359 79.62544441 40.22857666 81.32305908 C39.7325293 82.11333496 39.23648193 82.90361084 38.72540283 83.71783447 C38.25980957 84.45509766 37.79421631 85.19236084 37.31451416 85.95196533 C36.91023193 86.59335449 36.50594971 87.23474365 36.0894165 87.89556885 C35.68158936 88.51101563 35.27376221 89.1264624 34.85357666 89.76055908 C34.44763275 90.44638565 34.04168884 91.13221222 33.6234436 91.83882141 C31.85357666 93.76055908 31.85357666 93.76055908 29.3380127 94.30886841 C28.33542419 94.33014801 27.33283569 94.35142761 26.29986572 94.37335205 C24.59229095 94.42131424 24.59229095 94.42131424 22.85021973 94.47024536 C21.00336578 94.48633347 21.00336578 94.48633347 19.11920166 94.50274658 C17.21941559 94.529832 17.21941559 94.529832 15.28125 94.5574646 C12.59742433 94.58651587 9.91530331 94.60584213 7.23150635 94.6116333 C3.80559171 94.62237984 0.38442036 94.69760834 -3.04015732 94.78912163 C-6.32008573 94.86324278 -9.60014535 94.86570505 -12.88079834 94.87774658 C-14.10393738 94.91681122 -15.32707642 94.95587585 -16.58728027 94.99612427 C-24.91678916 94.90815754 -24.91678916 94.90815754 -28.39399719 91.66293335 C-30.20779844 89.10638657 -31.7042355 86.5409774 -33.14642334 83.76055908 C-33.82116699 82.72173584 -34.49591064 81.6829126 -35.19110107 80.61260986 C-35.73194336 79.73588623 -36.27278564 78.8591626 -36.83001709 77.95587158 C-37.44425537 76.96554932 -38.05849365 75.97522705 -38.69134521 74.95489502 C-39.62817139 73.43557373 -39.62817139 73.43557373 -40.58392334 71.88555908 C-45.20264665 64.41382617 -49.85296184 57.03906865 -55.02142334 49.93243408 C-56.14642334 47.76055908 -56.14642334 47.76055908 -55.90374756 45.93780518 C-54.97577308 43.26995335 -53.67063708 41.13755588 -52.15423584 38.75274658 C-51.53032959 37.76403564 -50.90642334 36.77532471 -50.26361084 35.75665283 C-49.60618896 34.72669189 -48.94876709 33.69673096 -48.27142334 32.63555908 C-47.00206285 30.63367182 -45.73386729 28.6310455 -44.46673584 26.62774658 C-43.40507202 25.04232056 -43.40507202 25.04232056 -42.32196045 23.42486572 C-40.59252496 20.71090522 -39.42407286 18.00768478 -38.28533936 15.00054932 C-30.9885604 -2.47678553 -16.50511448 -0.70197762 0 0 Z " fill="#479688" transform="translate(508.14642333984375,629.2394409179688)"/>
<path d="M0 0 C3.66276308 4.40414163 6.85195841 9.07689165 10.0625 13.8125 C11.22124358 15.51309619 12.38009967 17.21361572 13.5390625 18.9140625 C14.11817383 19.76516602 14.69728516 20.61626953 15.29394531 21.49316406 C17.83609107 25.22853221 20.38410175 28.95981645 22.9375 32.6875 C23.3610376 33.30923096 23.7845752 33.93096191 24.22094727 34.5715332 C25.02272923 35.74155262 25.84027414 36.90099958 26.67657471 38.04660034 C28 40 28 40 28.98576355 42.06770325 C30.41046336 44.66010687 31.6354959 46.19449077 34 48 C39.42507889 49.20837839 44.8119287 49.07241765 50.3359375 49 C51.94163983 49.00752324 53.54732921 49.01856136 55.15298462 49.03295898 C59.36533467 49.06133426 63.57616076 49.04214293 67.78845215 49.01287842 C72.09214114 48.99145036 76.39555767 49.01523364 80.69921875 49.03515625 C89.13319869 49.06756384 97.56610603 49.04969828 106 49 C106.4510334 47.83087067 106.4510334 47.83087067 106.91117859 46.63812256 C108.03088848 43.92515981 109.35437635 41.88146845 111.08203125 39.515625 C115.47112814 33.38157505 119.5777984 27.07234121 123.6875 20.75 C124.81151981 19.02409509 125.93601889 17.29850364 127.06074524 15.57305908 C128.07345371 14.01896125 129.084984 12.46409585 130.09643555 10.90917969 C132.04730919 7.9276983 134.01948227 4.96184048 136 2 C137.17797852 3.67773438 137.17797852 3.67773438 138 6 C136.96459961 8.43164062 136.96459961 8.43164062 135.15234375 11.15625 C134.48984619 12.16977539 133.82734863 13.18330078 133.14477539 14.22753906 C132.05217407 15.84740723 132.05217407 15.84740723 130.9375 17.5 C130.2007628 18.61839424 129.46566703 19.73787141 128.73217773 20.85839844 C126.50590118 24.25094167 124.25383934 27.62570325 122 31 C120.0842496 33.8823965 118.17221822 36.76700594 116.26977539 39.65820312 C115.15524946 41.35015326 114.03238457 43.03664801 112.90014648 44.71679688 C112.39813721 45.47541016 111.89612793 46.23402344 111.37890625 47.015625 C110.9413501 47.66821289 110.50379395 48.32080078 110.05297852 48.99316406 C108.79311468 51.39429569 108.30404726 53.30144739 108 56 C108.78705735 58.11245007 108.78705735 58.11245007 110.2097168 60.05249023 C110.71742111 60.81355576 111.22512543 61.57462128 111.74821472 62.35874939 C112.59021172 63.57142235 112.59021172 63.57142235 113.44921875 64.80859375 C114.01824417 65.65293472 114.58726959 66.4972757 115.17353821 67.36720276 C116.99766199 70.06701071 118.8420958 72.75220492 120.6875 75.4375 C121.9121797 77.24190783 123.13550333 79.04723684 124.35742188 80.85351562 C127.06750307 84.85483534 129.79046811 88.84701321 132.52519226 92.83152771 C134 95 134 95 135.7256012 98.21305847 C137.7716715 101.30119578 137.7716715 101.30119578 141.29034424 101.75949097 C143.24892365 101.7661528 143.24892365 101.7661528 145.24707031 101.77294922 C145.96941864 101.78357895 146.69176697 101.79420868 147.43600464 101.80516052 C149.81742067 101.83320785 152.19661947 101.81915585 154.578125 101.8046875 C156.23152604 101.81593772 157.8849111 101.82981841 159.53826904 101.84622192 C163.88512426 101.88228562 168.23127654 101.88263037 172.57824707 101.87554932 C177.0158346 101.87463694 181.45315793 101.90748722 185.890625 101.9375 C194.59384679 101.99138623 203.29661571 102.00754127 212 102 C212.30332245 101.22253922 212.6066449 100.44507843 212.91915894 99.64405823 C213.99534622 97.01138452 215.2575846 94.75276449 216.7578125 92.33984375 C217.29744629 91.4689209 217.83708008 90.59799805 218.39306641 89.70068359 C219.25037354 88.33290771 219.25037354 88.33290771 220.125 86.9375 C220.70813965 86.00244629 221.2912793 85.06739258 221.89208984 84.10400391 C234.07217185 64.64216792 234.07217185 64.64216792 238 61 C240.96338315 65.85994837 241.29825474 68.48241735 240 74 C238.61249936 76.81693996 236.93285234 79.39320766 235.1875 82 C234.3047188 83.35333858 233.42319621 84.70749904 232.54296875 86.0625 C232.11290527 86.71605469 231.6828418 87.36960937 231.23974609 88.04296875 C230.03141063 89.950416 228.94159923 91.89183928 227.86328125 93.875 C226 97 226 97 223 99 C221.53436058 101.26090937 221.53436058 101.26090937 220.1875 103.9375 C217.17883046 109.65987149 214.098955 115.3185825 211 121 C180.97 121 150.94 121 120 121 C118.02 117.04 118.02 117.04 116 113 C114.99745929 111.30401207 113.96654394 109.62422926 112.8984375 107.96875 C112.33012207 107.0828418 111.76180664 106.19693359 111.17626953 105.28417969 C110.28464111 103.90601074 110.28464111 103.90601074 109.375 102.5 C108.12982376 100.55753814 106.88503528 98.61482765 105.640625 96.671875 C104.72120117 95.24004883 104.72120117 95.24004883 103.78320312 93.77929688 C101.21623652 89.77842779 98.66219848 85.76980653 96.125 81.75 C95.49150635 80.7590332 95.49150635 80.7590332 94.84521484 79.74804688 C92 75.22953158 92 75.22953158 92 73 C91.1135228 73.02664734 90.22704559 73.05329468 89.31370544 73.08074951 C80.94289915 73.32159745 72.57326187 73.50408078 64.19978237 73.62174606 C59.8949454 73.68427882 55.59297912 73.76900543 51.28979492 73.90527344 C47.13332755 74.03606545 42.97961187 74.10748278 38.82124519 74.13852692 C37.23846141 74.1606335 35.65582207 74.20381349 34.07421684 74.26876068 C29.13616131 74.46339616 24.7481302 74.47390981 20 73 C16.57235475 69.38859999 14.82466774 65.58647738 13 61 C12.32728924 59.83673141 11.62574759 58.68871937 10.875 57.57421875 C9.89184199 56.06056506 8.90885047 54.5468023 7.92749023 53.03198242 C6.62166233 51.01913466 5.31087092 49.00956729 4 47 C2.7200128 45.03387974 1.4400682 43.06773175 0.16015625 41.1015625 C-6.38424941 31.02731654 -6.38424941 31.02731654 -13 21 C-12.70637444 17.09897473 -10.33319501 14.21933885 -8.1875 11.0625 C-7.50042969 10.04285156 -6.81335938 9.02320313 -6.10546875 7.97265625 C-4.16146775 5.22797209 -2.13135841 2.60073622 0 0 Z " fill="#FDF0BD" transform="translate(558,293)"/>
<path d="M0 0 C1.21295998 -0.02234207 1.21295998 -0.02234207 2.45042419 -0.0451355 C5.12221979 -0.0889043 7.79348117 -0.10938824 10.46557617 -0.12597656 C12.32639068 -0.14323912 14.18720509 -0.16051222 16.04801941 -0.17779541 C19.94935588 -0.20929804 23.8505074 -0.22684352 27.75195312 -0.23730469 C32.74292944 -0.25375477 37.73144815 -0.32582591 42.72165394 -0.41122055 C46.56596431 -0.46719429 50.40968635 -0.48272102 54.25436974 -0.48731232 C56.09362921 -0.49637315 57.93287982 -0.52039771 59.77173805 -0.55986786 C74.15564176 -0.84656956 74.15564176 -0.84656956 78.60574341 2.45910645 C80.40232141 4.73526031 81.70413949 6.87214103 82.94604492 9.48339844 C83.54932617 10.37027344 84.15260742 11.25714844 84.77416992 12.17089844 C85.24338867 12.93402344 85.71260742 13.69714844 86.19604492 14.48339844 C89.19153693 19.28558854 92.24085368 24.04784461 95.32104492 28.79589844 C95.78784668 29.51874023 96.25464844 30.24158203 96.7355957 30.98632812 C99.0101782 34.5078061 101.296873 38.01968758 103.61791992 41.51074219 C104.03251465 42.14004639 104.44710938 42.76935059 104.87426758 43.41772461 C105.99980572 45.12531889 107.1328331 46.82797001 108.26635742 48.53027344 C110.96107036 53.26795479 110.96107036 53.26795479 110.94604492 56.48339844 C109.59929654 58.8258327 108.28794111 60.75492197 106.63354492 62.85839844 C105.70687507 64.09373733 104.78246912 65.33077707 103.86010742 66.56933594 C103.37960937 67.20838867 102.89911133 67.84744141 102.40405273 68.50585938 C100.00266619 71.76293088 97.75157064 75.116126 95.50854492 78.48339844 C95.09628662 79.0936084 94.68402832 79.70381836 94.25927734 80.33251953 C92.41845031 83.09281139 90.79118988 85.80446708 89.34838867 88.79589844 C87.94604492 91.48339844 87.94604492 91.48339844 84.94604492 93.48339844 C84.61604492 94.32902344 84.28604492 95.17464844 83.94604492 96.04589844 C83.61604492 96.85027344 83.28604492 97.65464844 82.94604492 98.48339844 C81.46104492 98.97839844 81.46104492 98.97839844 79.94604492 99.48339844 C79.2961463 101.32730969 79.2961463 101.32730969 78.94604492 103.48339844 C77.93769737 106.93739933 76.76673022 109.18895424 73.94604492 111.48339844 C68.51448626 112.6616157 63.11609114 112.43811421 57.59448242 112.29980469 C55.97215961 112.2874122 54.34980752 112.27842366 52.72744751 112.27268982 C48.46316736 112.2478592 44.20104736 112.17414714 39.93756104 112.09100342 C36.45427578 112.03095658 32.97112312 112.00450572 29.48743248 111.9800272 C22.29407505 111.92938102 15.10078616 111.85657428 7.90844727 111.72387695 C6.63335297 111.70196793 5.35825867 111.6800589 4.04452515 111.65748596 C0.94604492 111.48339844 0.94604492 111.48339844 -2.05395508 110.48339844 C-3.68471231 108.32601135 -5.16165862 106.19254709 -6.61645508 103.92089844 C-7.05626709 103.24833008 -7.4960791 102.57576172 -7.94921875 101.8828125 C-10.55160849 97.88255976 -13.0946603 93.84674916 -15.59118652 89.77964783 C-16.4041504 88.47519565 -17.23241722 87.18007115 -18.08032227 85.89805603 C-20.48608666 82.22695434 -22.42602432 78.6973065 -24.03540039 74.609375 C-26.66481911 68.73705102 -29.57379056 64.04371027 -35.05395508 60.48339844 C-45.85953827 57.20235267 -57.40515412 57.64980222 -68.59082031 57.89648438 C-73.0922003 57.99364745 -77.56937876 57.90869931 -82.06908512 57.77690125 C-99.77873929 56.80996096 -99.77873929 56.80996096 -115.99118042 62.49658203 C-120.65351285 67.321246 -123.46923445 72.81555959 -125.99447632 78.98120117 C-127.37210547 82.23478211 -129.12207353 84.85253621 -131.15942383 87.73339844 C-132.1880494 89.31589932 -133.21549166 90.89917033 -134.24145508 92.48339844 C-134.77319336 93.30066406 -135.30493164 94.11792969 -135.8527832 94.95996094 C-136.84376262 96.48684014 -137.8286675 98.01769173 -138.80541992 99.55371094 C-139.83574205 101.14613684 -140.93095283 102.69637764 -142.04223633 104.23339844 C-143.34988849 106.46988351 -143.34988849 106.46988351 -142.29202271 108.8495636 C-141.10813577 111.36813575 -139.81398863 113.57174866 -138.2565918 115.87475586 C-137.41594681 117.12581367 -137.41594681 117.12581367 -136.55831909 118.40214539 C-135.95617584 119.28876358 -135.35403259 120.17538177 -134.73364258 121.08886719 C-133.80565353 122.46949089 -133.80565353 122.46949089 -132.85891724 123.87800598 C-130.88667437 126.81196973 -128.90854328 129.74188647 -126.92895508 132.67089844 C-124.3169624 136.5359033 -121.71096114 140.40484414 -119.10864258 144.27636719 C-118.50245087 145.16905807 -117.89625916 146.06174896 -117.271698 146.98149109 C-116.71757233 147.80607315 -116.16344666 148.63065521 -115.5925293 149.48022461 C-114.85545242 150.57012947 -114.85545242 150.57012947 -114.10348511 151.68205261 C-113.05395508 153.48339844 -113.05395508 153.48339844 -113.05395508 155.48339844 C-117.67395508 155.81339844 -122.29395508 156.14339844 -127.05395508 156.48339844 C-130.40442673 151.49473549 -133.73341216 146.4920284 -137.05395508 141.48339844 C-137.75020996 140.43345703 -138.44646484 139.38351562 -139.16381836 138.30175781 C-141.08038302 135.4087602 -142.99085337 132.51179844 -144.89822388 129.61273193 C-145.6660739 128.44717975 -146.43549397 127.28266032 -147.20651245 126.11920166 C-148.30579953 124.45959072 -149.39872886 122.79577403 -150.49145508 121.13183594 C-151.12954102 120.1642334 -151.76762695 119.19663086 -152.42504883 118.19970703 C-154.05395508 115.48339844 -154.05395508 115.48339844 -156.05395508 110.48339844 C-180.47395508 110.48339844 -204.89395508 110.48339844 -230.05395508 110.48339844 C-230.05395508 110.15339844 -230.05395508 109.82339844 -230.05395508 109.48339844 C-195.89895508 108.98839844 -195.89895508 108.98839844 -161.05395508 108.48339844 C-160.39395508 106.50339844 -159.73395508 104.52339844 -159.05395508 102.48339844 C-157.86586974 101.00583037 -156.67272486 99.53050542 -155.41381836 98.11279297 C-152.91796777 95.12225314 -151.00160256 91.74836049 -148.99145508 88.42089844 C-146.22942322 83.86544926 -143.41607907 79.62838706 -140.05395508 75.48339844 C-139.03426392 73.8287058 -138.03458428 72.16153554 -137.05395508 70.48339844 C-135.79385257 68.55965985 -134.52234248 66.64336072 -133.24145508 64.73339844 C-132.5427832 63.69054687 -131.84411133 62.64769531 -131.12426758 61.57324219 C-130.44106445 60.55359375 -129.75786133 59.53394531 -129.05395508 58.48339844 C-127.42917793 56.03228613 -125.80489012 53.58086152 -124.18286133 51.12792969 C-123.05395508 49.48339844 -123.05395508 49.48339844 -122.05395508 48.48339844 C-119.75341673 48.38896508 -117.44993335 48.36597715 -115.14746094 48.36987305 C-114.42555069 48.36972702 -113.70364044 48.36958099 -112.95985413 48.36943054 C-110.5628056 48.37012975 -108.16583385 48.37792249 -105.76879883 48.38574219 C-104.11113019 48.38760634 -102.45346101 48.38903026 -100.79579163 48.39002991 C-96.42441294 48.39385531 -92.05306727 48.40368578 -87.68170166 48.41473389 C-83.22441047 48.42494752 -78.76711396 48.42952742 -74.30981445 48.43457031 C-65.55784615 48.44530804 -56.80590471 48.46238472 -48.05395508 48.48339844 C-47.62397217 47.34946655 -47.62397217 47.34946655 -47.18530273 46.19262695 C-45.69994617 42.63565635 -43.59578252 39.58667282 -41.42895508 36.42089844 C-40.52659455 35.08497227 -39.62425102 33.74903462 -38.72192383 32.41308594 C-38.27252441 31.75147461 -37.823125 31.08986328 -37.36010742 30.40820312 C-35.47435114 27.62926808 -33.60679814 24.83858347 -31.74145508 22.04589844 C-31.0943457 21.09328125 -30.44723633 20.14066406 -29.78051758 19.15917969 C-28.03995366 16.5595494 -28.03995366 16.5595494 -26.76489258 13.96386719 C-24.79583806 10.13961504 -24.79583806 10.13961504 -23.05395508 8.48339844 C-19.94712854 7.83043828 -17.17586076 7.99368774 -14.05395508 8.48339844 C-13.68270508 7.33871094 -13.68270508 7.33871094 -13.30395508 6.17089844 C-10.48711367 0.11468941 -6.14515647 0.02711314 0 0 Z M-13.1081562 21.56564522 C-14.41762044 24.2207861 -16.01417181 26.64983473 -17.66333008 29.10449219 C-18.19055664 29.91466797 -18.7177832 30.72484375 -19.26098633 31.55957031 C-19.77016602 32.33880859 -20.2793457 33.11804688 -20.80395508 33.92089844 C-21.32860352 34.72720703 -21.85325195 35.53351562 -22.39379883 36.36425781 C-22.91586914 37.16541016 -23.43793945 37.9665625 -23.97583008 38.79199219 C-24.47791992 39.56655762 -24.98000977 40.34112305 -25.49731445 41.13916016 C-26.57337458 42.7596635 -27.68120433 44.35935445 -28.8137207 45.94091797 C-29.3725293 46.72966309 -29.93133789 47.5184082 -30.50708008 48.33105469 C-31.2752002 49.38498413 -31.2752002 49.38498413 -32.05883789 50.46020508 C-33.2456729 52.41801178 -33.2456729 52.41801178 -32.83398438 54.53271484 C-31.50589922 57.85396692 -29.53763978 60.79474505 -27.61645508 63.79589844 C-27.17052002 64.50085449 -26.72458496 65.20581055 -26.26513672 65.93212891 C-22.13368243 72.4313554 -17.93385066 78.9046487 -13.49813843 85.20117188 C-12.05395508 87.48339844 -12.05395508 87.48339844 -10.41567993 90.8671875 C-7.64123246 96.32770899 -5.31367649 100.61273998 0.58024597 102.88363647 C4.99490047 103.67236846 9.41490839 103.69963748 13.88745117 103.69433594 C15.54025303 103.72925146 17.19300141 103.76678639 18.84568787 103.80679321 C22.30421436 103.87235427 25.75779069 103.88263346 29.21679688 103.85791016 C32.74001925 103.83888812 36.2428719 103.90776824 39.76269531 104.06298828 C58.78410676 105.50616474 58.78410676 105.50616474 76.04190063 99.19332886 C81.13562882 93.66513121 84.37467127 87.46234185 87.41389465 80.63975525 C90.01132996 75.28882277 93.52397062 70.59646081 97.00854492 65.79589844 C98.19007917 64.1066903 99.3690285 62.41566653 100.54370117 60.72167969 C101.03362549 60.02083252 101.5235498 59.31998535 102.02832031 58.59790039 C103.25906114 55.76218708 102.89859586 54.3999748 101.94604492 51.48339844 C100.67277083 48.96829894 100.67277083 48.96829894 99.02416992 46.44824219 C98.40928711 45.47177734 97.7944043 44.4953125 97.16088867 43.48925781 C96.51249023 42.47669922 95.8640918 41.46414063 95.19604492 40.42089844 C94.59405273 39.46634766 93.99206055 38.51179687 93.37182617 37.52832031 C92.04001307 35.42438244 90.66419393 33.34793657 89.25585938 31.29443359 C87.36699565 28.40586252 86.13985244 25.51355104 84.90771484 22.29345703 C82.29066172 16.21821677 79.57079882 11.2039217 73.94604492 7.48339844 C62.21756253 3.94183417 49.5887779 4.81213838 37.47845459 5.17749023 C33.85107435 5.25205165 30.23087493 5.19290402 26.60361195 5.13305283 C23.08717289 5.09056171 19.57486806 5.12667611 16.0588131 5.1865921 C14.3897605 5.20715658 12.72026848 5.2055881 11.05127907 5.18041229 C-2.60011007 5.05167822 -7.3186045 9.39689196 -13.1081562 21.56564522 Z " fill="#F5F0CB" transform="translate(700.053955078125,623.5166015625)"/>
<path d="M0 0 C2.75619416 3.36521803 5.27673185 6.79685201 7.6796875 10.421875 C8.36160156 11.44796875 9.04351562 12.4740625 9.74609375 13.53125 C10.44863281 14.5934375 11.15117187 15.655625 11.875 16.75 C12.91720703 18.32007813 12.91720703 18.32007813 13.98046875 19.921875 C15.3455103 21.97843477 16.70852251 24.0363432 18.06933594 26.09570312 C19.31647341 27.97177133 20.5742381 29.8408378 21.84472656 31.70117188 C22.6679541 32.90870117 22.6679541 32.90870117 23.5078125 34.140625 C23.99137207 34.84219727 24.47493164 35.54376953 24.97314453 36.26660156 C26 38 26 38 26 40 C50.42 40 74.84 40 100 40 C100.66 38.35 101.32 36.7 102 35 C103.04693656 33.2401979 104.13918782 31.50688052 105.265625 29.796875 C105.90886719 28.81589844 106.55210937 27.83492188 107.21484375 26.82421875 C108.22224609 25.30248047 108.22224609 25.30248047 109.25 23.75 C109.90613281 22.75097656 110.56226563 21.75195312 111.23828125 20.72265625 C115.13362788 14.79832191 119.05937064 8.8942935 123 3 C125.95654297 5.69580078 125.95654297 5.69580078 126.34765625 8.43359375 C125.95028158 11.36702247 125.18463427 12.6949734 123.4375 15.0625 C120.10126794 19.75382869 117.30500762 24.65920922 114.515625 29.69140625 C114.01546875 30.45324219 113.5153125 31.21507812 113 32 C112.34 32 111.68 32 111 32 C110.74476563 32.68835938 110.48953125 33.37671875 110.2265625 34.0859375 C108.82459257 37.41673231 107.15666407 40.4804694 105.375 43.625 C104.42753906 45.31496094 104.42753906 45.31496094 103.4609375 47.0390625 C103.0811676 47.64623611 102.70139771 48.25340973 102.31011963 48.87898254 C101.3303209 50.46522717 100.42215209 52.09610899 99.55267334 53.7454071 C96.86653992 58.24623659 94.84317967 61.42945755 89.69607544 63.02270508 C85.60861488 63.40737282 81.65296464 63.45295701 77.5546875 63.35546875 C76.05591443 63.35525965 74.55713671 63.35876658 73.05838013 63.36579895 C69.92864798 63.3684681 66.80240353 63.33319742 63.67333984 63.26928711 C59.67272883 63.18966637 55.67768615 63.19479757 51.67658806 63.22698498 C48.58595066 63.24427771 45.49658558 63.22198694 42.40613174 63.18734169 C40.93186959 63.17451371 39.45746864 63.17260145 37.983181 63.18205833 C26.52923139 63.21664074 26.52923139 63.21664074 22.79333496 60.24440002 C21.24902238 58.21981318 20.09905413 56.29073837 19 54 C18.39671875 53.03191406 17.7934375 52.06382812 17.171875 51.06640625 C16.70265625 50.24011719 16.2334375 49.41382813 15.75 48.5625 C13.97951338 45.15110286 13.97951338 45.15110286 11 43 C10.67 43.66 10.34 44.32 10 45 C9.71769531 44.43796875 9.43539063 43.8759375 9.14453125 43.296875 C5.0732817 35.51255035 0.33540323 28.23160332 -4.50463867 20.90722656 C-5.05482666 20.07288086 -5.60501465 19.23853516 -6.171875 18.37890625 C-6.6678418 17.6319751 -7.16380859 16.88504395 -7.67480469 16.11547852 C-8.92184721 14.12475939 -9.98953584 12.11891818 -11 10 C-8.525 10.495 -8.525 10.495 -6 11 C-5.5978125 9.7934375 -5.5978125 9.7934375 -5.1875 8.5625 C-4.795625 7.716875 -4.40375 6.87125 -4 6 C-3.01 5.67 -2.02 5.34 -1 5 C-0.67 3.35 -0.34 1.7 0 0 Z " fill="#FDF2C4" transform="translate(449,248)"/>
<path d="M0 0 C2.94975766 2.76629713 5.09754324 5.4990731 7.171875 8.96484375 C7.75453125 9.93099609 8.3371875 10.89714844 8.9375 11.89257812 C9.8346875 13.39981445 9.8346875 13.39981445 10.75 14.9375 C12.50517399 17.85955405 14.25995801 20.7800398 16.05047607 23.68060303 C18 27 18 27 19.61505127 30.39300537 C22.94300796 37.1541535 22.94300796 37.1541535 29.06854248 41.17677307 C32.81172065 41.60216442 36.36006307 41.61995962 40.125 41.48828125 C41.4812054 41.48646922 42.83742947 41.49040421 44.19360352 41.49980164 C47.74021513 41.50911857 51.28115917 41.44111469 54.82659912 41.35620117 C58.45323017 41.2832795 62.0797827 41.28453686 65.70703125 41.27929688 C72.80632109 41.25823449 79.90227441 41.15537048 87 41 C86.01 42.65 85.02 44.3 84 46 C87.3 46.33 90.6 46.66 94 47 C94 47.33 94 47.66 94 48 C70.57 48 47.14 48 23 48 C22.67 48.66 22.34 49.32 22 50 C18.78090607 47.85393738 18.3007881 46.97928088 16.7578125 43.58984375 C13.89266926 37.62240495 10.45241326 32.1244362 6.875 26.5625 C5.94494141 25.09393555 5.94494141 25.09393555 4.99609375 23.59570312 C2.00211656 18.70756765 2.00211656 18.70756765 -1.67529297 14.35522461 C-3 13 -3 13 -3.375 10.5625 C-2.93511274 7.55660372 -1.83107277 6.36513567 0 4 C0 2.68 0 1.36 0 0 Z " fill="#FBF2C6" transform="translate(342,300)"/>
<path d="M0 0 C-1.3125 1.96875 -1.3125 1.96875 -2.625 3.9375 C-3.17542969 4.76378906 -3.72585938 5.59007812 -4.29296875 6.44140625 C-5.3556311 8.03418391 -6.42036563 9.62558349 -7.48828125 11.21484375 C-10.21340289 15.27681751 -12.88168291 19.36823809 -15.5 23.5 C-17.73027101 27.01317026 -19.96783448 30.52026248 -22.25 34 C-22.70890625 34.70125 -23.1678125 35.4025 -23.640625 36.125 C-24.96089528 37.94606246 -26.41399165 39.41399165 -28 41 C-28.89582173 42.99660454 -28.89582173 42.99660454 -29 45 C-28.34 45.66 -27.68 46.32 -27 47 C-29.31 47 -31.62 47 -34 47 C-33.34 46.67 -32.68 46.34 -32 46 C-31.29618843 44.01276732 -30.6288189 42.01222047 -30 40 C-29.67 39.67 -29.34 39.34 -29 39 C-58.205 38.505 -58.205 38.505 -88 38 C-87.67 37.34 -87.34 36.68 -87 36 C-86.30446014 36.04885345 -85.60892029 36.09770691 -84.89230347 36.14804077 C-78.27686341 36.59228842 -71.6656645 36.92532139 -65.03858757 37.13986778 C-61.63131643 37.25394389 -58.23650594 37.40772611 -54.83642578 37.65966797 C-39.83168989 39.19125768 -39.83168989 39.19125768 -26.40811157 33.89453125 C-21.96009748 28.69502619 -18.94747895 22.90257725 -16.20100403 16.66821289 C-14.55191564 13.00451254 -12.53256689 9.67552176 -10.4375 6.25 C-9.87933594 5.26515625 -9.32117188 4.2803125 -8.74609375 3.265625 C-6.39812885 0.21904862 -3.72269975 -1.86134987 0 0 Z " fill="#E4F2E7" transform="translate(569,686)"/>
<path d="M0 0 C3.31671783 3.97394763 6.10573735 8.1417239 8.875 12.5 C15.44780587 22.75705761 22.22033852 32.87894457 29 43 C28.67 43.66 28.34 44.32 28 45 C26.515 45.495 26.515 45.495 25 46 C20.3495824 39.59412675 16.06511166 33.00805094 11.93115234 26.26245117 C9.73794525 22.70382821 7.48551917 19.22244959 5.06640625 15.8125 C4.59501221 15.14049561 4.12361816 14.46849121 3.63793945 13.77612305 C2.73115752 12.49322999 1.8096134 11.22061104 0.87182617 9.96020508 C-0.359375 8.20703125 -0.359375 8.20703125 -2 5 C-1.265625 2.07421875 -1.265625 2.07421875 0 0 Z " fill="#E8EBCD" transform="translate(668,680)"/>
<path d="M0 0 C23.76 0 47.52 0 72 0 C72 0.66 72 1.32 72 2 C64.76331025 2.1447722 57.52657136 2.2868745 50.28979492 2.42724609 C47.83535617 2.47515483 45.38092865 2.52364253 42.92651367 2.57275391 C39.3690064 2.64383152 35.81147127 2.71312661 32.25390625 2.78125 C31.10225983 2.80348633 29.9506134 2.82572266 28.7640686 2.84863281 C20.82163902 2.99233946 12.8880662 3.01792913 4.94506836 2.91992188 C2.06664682 2.79053602 2.06664682 2.79053602 0 4 C0 2.68 0 1.36 0 0 Z " fill="#CC9C46" transform="translate(698,295)"/>
<path d="M0 0 C1.19116211 1.65795898 1.19116211 1.65795898 2 4 C0.86938477 6.57446289 0.86938477 6.57446289 -1.05859375 9.47265625 C-1.75533203 10.53806641 -2.45207031 11.60347656 -3.16992188 12.70117188 C-3.92530699 13.82193438 -4.68116856 14.9423759 -5.4375 16.0625 C-6.87373792 18.24085904 -8.30993612 20.41924427 -9.74609375 22.59765625 C-10.45749512 23.65871582 -11.16889648 24.71977539 -11.90185547 25.81298828 C-14.54172608 29.82286389 -17.02341886 33.92234826 -19.47680664 38.04858398 C-19.97946045 38.69255127 -20.48211426 39.33651855 -21 40 C-21.99 40 -22.98 40 -24 40 C-23.46288182 35.38726143 -21.42855798 32.14613209 -18.88671875 28.37890625 C-18.47589554 27.75652573 -18.06507233 27.1341452 -17.64179993 26.49290466 C-16.33112258 24.51106191 -15.00954643 22.53677206 -13.6875 20.5625 C-12.8098171 19.23941611 -11.93285649 17.91585277 -11.05664062 16.59179688 C-8.71342216 13.05513657 -6.35811176 9.52674753 -4 6 C-2.66609631 4.00037959 -1.33302771 2.00020457 0 0 Z " fill="#FCF4CC" transform="translate(694,295)"/>
<path d="M0 0 C0.495 0.99 0.495 0.99 1 2 C1.66 2 2.32 2 3 2 C1.69870866 4.90288067 0.38314374 6.89183439 -2 9 C-2.55161804 9.51762405 -3.10323608 10.03524811 -3.67156982 10.56855774 C-6.85373518 12.5248483 -9.15730433 12.36066203 -12.87988281 12.34057617 C-13.56321686 12.34101425 -14.2465509 12.34145233 -14.95059204 12.34190369 C-17.2017304 12.33981921 -19.45211729 12.31650548 -21.703125 12.29296875 C-23.26682122 12.28737155 -24.83052271 12.28310204 -26.39422607 12.28010559 C-30.50429886 12.26866648 -34.6140522 12.23920756 -38.72399902 12.20599365 C-42.92012206 12.17527251 -47.11629685 12.1615959 -51.3125 12.14648438 C-59.54181305 12.11433676 -67.77086676 12.06315195 -76 12 C-76 11.01 -76 10.02 -76 9 C-75.67 9.33 -75.34 9.66 -75 10 C-72.92166024 10.14682819 -70.8383116 10.22308925 -68.75537109 10.2722168 C-67.77715393 10.29653023 -67.77715393 10.29653023 -66.7791748 10.32133484 C-60.74779113 10.46181971 -54.71492185 10.53971659 -48.6822567 10.60025311 C-44.62892967 10.6411935 -40.57802456 10.70144756 -36.52587891 10.80932617 C-32.60815911 10.9132782 -28.6925968 10.96768637 -24.77357864 10.98771095 C-23.28305266 11.00361406 -21.79260307 11.0367803 -20.30286789 11.08786583 C-11.75448993 11.55631748 -11.75448993 11.55631748 -4.48419189 7.70498657 C-2.71709987 5.20207989 -1.27413037 2.78217155 0 0 Z " fill="#FDFAEA" transform="translate(549,299)"/>
<path d="M0 0 C-8 12 -8 12 -10 12.625 C-10.66 12.74875 -11.32 12.8725 -12 13 C-12.99 13.495 -12.99 13.495 -14 14 C-12.09364302 8.45423423 -9.5035696 2.45556372 -4.3125 -0.5625 C-2 -1 -2 -1 0 0 Z " fill="#F3F9F1" transform="translate(569,686)"/>
<path d="M0 0 C0.66 0.33 1.32 0.66 2 1 C0.92333797 2.7541123 -0.16163339 4.50312587 -1.25 6.25 C-2.15492188 7.71179688 -2.15492188 7.71179688 -3.078125 9.203125 C-4.862933 11.80052852 -6.75267723 13.8105482 -9 16 C-9.96877057 18.03243548 -9.96877057 18.03243548 -10 20 C-9.34 20.66 -8.68 21.32 -8 22 C-10.31 22 -12.62 22 -15 22 C-14.34 21.67 -13.68 21.34 -13 21 C-12.29373761 19.01363702 -11.63106429 17.01151741 -11 15 C-10.36184656 13.65278717 -9.70674629 12.31252882 -9 11 C-8.34 11 -7.68 11 -7 11 C-6.67 10.01 -6.34 9.02 -6 8 C-5.34 8 -4.68 8 -4 8 C-3.896875 7.236875 -3.79375 6.47375 -3.6875 5.6875 C-2.95635961 2.82940576 -2.23048087 1.84257115 0 0 Z " fill="#FDFBEB" transform="translate(550,711)"/>
<path d="M0 0 C1.093125 0.0825 2.18625 0.165 3.3125 0.25 C3.6425 0.91 3.9725 1.57 4.3125 2.25 C3.3225 3.57 2.3325 4.89 1.3125 6.25 C1.3125 4.93 1.3125 3.61 1.3125 2.25 C-3.06609255 2.75522222 -5.50401224 5.42827222 -8.6875 8.25 C-5.015 0.34 -5.015 0.34 0 0 Z " fill="#F5FBED" transform="translate(468.6875,639.75)"/>
<path d="M0 0 C0.66 0 1.32 0 2 0 C0.6744419 3.62276315 -0.94346955 6.63505348 -3.125 9.8125 C-3.66382813 10.60269531 -4.20265625 11.39289063 -4.7578125 12.20703125 C-5.16773438 12.79871094 -5.57765625 13.39039063 -6 14 C-6.66 13.67 -7.32 13.34 -8 13 C-6.716961 10.82778513 -5.42427887 8.6624676 -4.125 6.5 C-3.76019531 5.87996094 -3.39539063 5.25992187 -3.01953125 4.62109375 C-2.0677482 3.04632542 -1.03889741 1.51870947 0 0 Z " fill="#D79E3E" transform="translate(358,260)"/>
<path d="M0 0 C0.33 0.66 0.66 1.32 1 2 C1.66 2.33 2.32 2.66 3 3 C2.01 5.31 1.02 7.62 0 10 C-2 7 -2 7 -1.6875 3.875 C-1 1 -1 1 0 0 Z " fill="#F9ECB1" transform="translate(665,339)"/>
<path d="M0 0 C0.33 0.66 0.66 1.32 1 2 C-0.84114107 5.49181927 -2.81159561 8.71739341 -5 12 C-5.66 12 -6.32 12 -7 12 C-5.44298069 7.32894208 -2.91552627 3.91294315 0 0 Z " fill="#F5CD69" transform="translate(575,269)"/>
<path d="M0 0 C2.83328987 2.83328987 3.7191375 4.35446828 5 8 C3.02 8.33 1.04 8.66 -1 9 C-0.67 6.03 -0.34 3.06 0 0 Z " fill="#E8F2E3" transform="translate(238,464)"/>
<path d="M0 0 C0 3.16820458 -0.62797454 4.25594908 -2 7 C-2 7.99 -2 8.98 -2 10 C-2.99 9.01 -3.98 8.02 -5 7 C-3.75023244 3.34683329 -3.32901247 2.21934164 0 0 Z " fill="#216964" transform="translate(561,725)"/>
<path d="M0 0 C0.66 0 1.32 0 2 0 C1.64950425 3.24208567 1.43778819 4.61527704 -1.0625 6.8125 C-1.701875 7.204375 -2.34125 7.59625 -3 8 C-2.45276317 4.62537285 -1.9451 2.91765 0 0 Z " fill="#214747" transform="translate(243,550)"/>
<path d="M0 0 C3.25 -0.375 3.25 -0.375 6 0 C4.8553125 0.8971875 4.8553125 0.8971875 3.6875 1.8125 C1.6516425 3.46959332 -0.1978279 5.10297674 -2 7 C-2.66 6.67 -3.32 6.34 -4 6 C-2.375 3 -2.375 3 0 0 Z " fill="#F4CA62" transform="translate(591,246)"/>
</svg>
